<?xml version="1.0" encoding="utf-8"?>
<!-- Generator: Adobe Illustrator 24.3.0, SVG Export Plug-In . SVG Version: 6.00 Build 0)  -->
<svg version="1.1" xmlns="http://www.w3.org/2000/svg" xmlns:xlink="http://www.w3.org/1999/xlink" x="0px" y="0px"
	 viewBox="0 0 500 500" style="enable-background:new 0 0 500 500;" xml:space="preserve">
<style type="text/css">
	.st0{opacity:0.5;}
	.st1{fill:#111010;}
</style>
<g id="BACKGROUND">
</g>
<g id="OBJECTS">
	<g>
		<g class="st0">
			<path d="M253.2,27.7C127.2,27.8,24.9,129,21.6,254.9c-0.8,31.8,3.2,62.1,13.9,90c0,0-35.6-172.9,96.3-263.2
				c33.8-22.5,82.2-33.7,126.1-32.8C369,51.2,466.3,151.4,467.1,262.5c0.8,114.5-99.4,210.7-213.7,210.7c-34,0-70.9-8.2-97.3-25.9
				c-38.7-25.8-39.3-67.1-26.8-101.3c35-95.5,92-234.6,124.1-237.6c14.9-1.4,55.8,59.5,116.8,259.2c0.2,0.5,0.2,1,0.3,1.4
				c6.5,9.4,12.6,19.7,12.6,19.7c-5.4-7.1-14-14.4-22.5-20.8c-90.4-64.8-195.5-84.5-195.5-84.5l-4.2,9.5c0,0,92.5,17.6,207.5,98.9
				c9.3,6.6,18.5,6.2,20.5-3.3C393.3,367,302,89.6,253.2,89.6c-33.4,0-104.3,157.9-140.4,256.3c-19.3,52.6-2,104,49.5,126.3
				c28.4,12.3,59.7,19.1,92.6,19.1c128.2,0,231.5-98.8,231.8-226.9C486.9,135.3,382.2,27.6,253.2,27.7z"/>
			<path d="M130.3,274.6c0,0-38-4-71.4,3.8c0,0,41.3-2.1,67.5,6.4L130.3,274.6z"/>
			<ellipse transform="matrix(0.3806 -0.9247 0.9247 0.3806 -67.8059 384.7752)" cx="253.3" cy="243" rx="12.9" ry="12.9"/>
		</g>
		<g>
			<path class="st1" d="M243.9,9.5C118,9.6,15.6,110.8,12.4,236.7c-0.8,31.8,3.2,62.1,13.9,90c0,0-35.6-172.9,96.3-263.2
				c33.8-22.5,82.2-33.7,126.1-32.8C359.7,33,457.1,133.2,457.8,244.3C458.6,358.8,358.5,455,244.1,455c-34,0-70.9-8.2-97.3-25.9
				c-38.7-25.8-39.3-67.1-26.8-101.3c35-95.5,92-234.6,124.1-237.6c14.9-1.4,55.8,59.5,116.8,259.2c0.2,0.5,0.2,1,0.3,1.4
				c6.5,9.4,12.6,19.7,12.6,19.7c-5.4-7.1-14-14.4-22.5-20.8c-90.4-64.8-195.5-84.5-195.5-84.5l-4.2,9.5c0,0,92.5,17.6,207.5,98.9
				c9.3,6.6,18.5,6.2,20.5-3.3c4.5-21.5-86.8-298.8-135.6-298.8c-33.4,0-104.3,157.9-140.4,256.3c-19.3,52.6-2,104,49.5,126.3
				c28.4,12.3,59.7,19.1,92.6,19.1c128.2,0,231.5-98.8,231.8-226.9C477.6,117.1,373,9.4,243.9,9.5z"/>
			<path class="st1" d="M117.1,266.6l3.9-10.2c0,0-38-4-71.4,3.8C49.7,260.2,90.9,258.1,117.1,266.6z"/>
			<circle class="st1" cx="244.1" cy="224.8" r="12.9"/>
			<path class="st1" d="M354.6,352.1"/>
		</g>
	</g>
</g>
</svg>
